<?xml version="1.0" encoding="UTF-8" standalone="no"?>
<!-- Generator: Adobe Illustrator 16.0.0, SVG Export Plug-In . SVG Version: 6.00 Build 0)  -->

<svg
   xmlns:dc="http://purl.org/dc/elements/1.1/"
   xmlns:cc="http://creativecommons.org/ns#"
   xmlns:rdf="http://www.w3.org/1999/02/22-rdf-syntax-ns#"
   xmlns:svg="http://www.w3.org/2000/svg"
   xmlns="http://www.w3.org/2000/svg"
   xmlns:sodipodi="http://sodipodi.sourceforge.net/DTD/sodipodi-0.dtd"
   xmlns:inkscape="http://www.inkscape.org/namespaces/inkscape"
   version="1.1"
   id="Layer_1"
   x="0px"
   y="0px"
   width="1000"
   height="1000.561"
   viewBox="-194 289.802 1000 1000.561"
   enable-background="new -194 289.802 1000 212.396"
   xml:space="preserve"
   sodipodi:docname="Yamaha Symbol Print.svg"
   inkscape:version="0.92.2 (5c3e80d, 2017-08-06)"><metadata
     id="metadata1703"><rdf:RDF><cc:Work
         rdf:about=""><dc:format>image/svg+xml</dc:format><dc:type
           rdf:resource="http://purl.org/dc/dcmitype/StillImage" /><dc:title></dc:title></cc:Work></rdf:RDF></metadata><defs
     id="defs1701"><radialGradient
       id="SVGID_2_"
       cx="-11724.914"
       cy="-3164.0698"
       r="3767.3872"
       gradientTransform="matrix(0.0642,0,0,0.0642,565.5225,503.5067)"
       gradientUnits="userSpaceOnUse"><stop
         offset="0"
         style="stop-color:#E3EAED"
         id="stop1329" /><stop
         offset="0.1822"
         style="stop-color:#EEF2F4"
         id="stop1331" /><stop
         offset="0.3876"
         style="stop-color:#FFFFFF"
         id="stop1333" /><stop
         offset="0.4578"
         style="stop-color:#FBFCFC"
         id="stop1335" /><stop
         offset="0.5241"
         style="stop-color:#F0F1F4"
         id="stop1337" /><stop
         offset="0.5889"
         style="stop-color:#DDE0E5"
         id="stop1339" /><stop
         offset="0.6527"
         style="stop-color:#C2C8D1"
         id="stop1341" /><stop
         offset="0.7153"
         style="stop-color:#A0A9B8"
         id="stop1343" /><stop
         offset="0.7416"
         style="stop-color:#8F9AAB"
         id="stop1345" /><stop
         offset="0.7775"
         style="stop-color:#A7B0BE"
         id="stop1347" /><stop
         offset="0.8504"
         style="stop-color:#D1D7E0"
         id="stop1349" /><stop
         offset="0.8876"
         style="stop-color:#E2E6ED"
         id="stop1351" /><stop
         offset="0.9038"
         style="stop-color:#D9DEE6"
         id="stop1353" /><stop
         offset="0.9303"
         style="stop-color:#C1C9D3"
         id="stop1355" /><stop
         offset="0.9636"
         style="stop-color:#99A6B5"
         id="stop1357" /><stop
         offset="1"
         style="stop-color:#667A8D"
         id="stop1359" /></radialGradient><linearGradient
       id="SVGID_3_"
       gradientUnits="userSpaceOnUse"
       x1="-7016.874"
       y1="-3182.3159"
       x2="-5908.6455"
       y2="-2074.0874"
       gradientTransform="matrix(0.1284,0,0,0.1284,739.7501,731.2684)"><stop
         offset="0"
         style="stop-color:#FFFFFF"
         id="stop1364" /><stop
         offset="1"
         style="stop-color:#58595B"
         id="stop1366" /></linearGradient><linearGradient
       id="SVGID_4_"
       gradientUnits="userSpaceOnUse"
       x1="-6015.5024"
       y1="-2117.1743"
       x2="-6854.3003"
       y2="-2955.9722"
       gradientTransform="matrix(0.1284,0,0,0.1284,739.7501,731.2684)"><stop
         offset="0"
         style="stop-color:#FFFFFF"
         id="stop1371" /><stop
         offset="1"
         style="stop-color:#58595B"
         id="stop1373" /></linearGradient><linearGradient
       id="SVGID_5_"
       gradientUnits="userSpaceOnUse"
       x1="-1746.1846"
       y1="-2227.3623"
       x2="-1746.1846"
       y2="-2335.908"
       gradientTransform="matrix(-0.1284,0,0,0.1284,-230.1935,731.2796)"><stop
         offset="0"
         style="stop-color:#FFFFFF"
         id="stop1378" /><stop
         offset="1"
         style="stop-color:#808184"
         id="stop1380" /></linearGradient><linearGradient
       id="SVGID_6_"
       gradientUnits="userSpaceOnUse"
       x1="-11517.447"
       y1="-900.61719"
       x2="-11256.677"
       y2="-900.61719"
       gradientTransform="matrix(0.0642,0,0,0.0642,565.5225,503.5067)"><stop
         offset="0"
         style="stop-color:#BBBDBF"
         id="stop1385" /><stop
         offset="0.0266"
         style="stop-color:#C3C5C7"
         id="stop1387" /><stop
         offset="0.1154"
         style="stop-color:#D9DADB"
         id="stop1389" /><stop
         offset="0.2196"
         style="stop-color:#EAEBEB"
         id="stop1391" /><stop
         offset="0.3478"
         style="stop-color:#F6F6F7"
         id="stop1393" /><stop
         offset="0.5258"
         style="stop-color:#FDFDFD"
         id="stop1395" /><stop
         offset="1"
         style="stop-color:#FFFFFF"
         id="stop1397" /></linearGradient><linearGradient
       id="SVGID_7_"
       gradientUnits="userSpaceOnUse"
       x1="-11522.901"
       y1="-996.94922"
       x2="-11355.658"
       y2="-996.94922"
       gradientTransform="matrix(0.0642,0,0,0.0642,565.5225,503.5067)"><stop
         offset="0"
         style="stop-color:#BBBDBF"
         id="stop1402" /><stop
         offset="0.097"
         style="stop-color:#A2A3A5"
         id="stop1404" /><stop
         offset="0.2275"
         style="stop-color:#87888A"
         id="stop1406" /><stop
         offset="0.3698"
         style="stop-color:#727375"
         id="stop1408" /><stop
         offset="0.528"
         style="stop-color:#636466"
         id="stop1410" /><stop
         offset="0.7145"
         style="stop-color:#5B5C5E"
         id="stop1412" /><stop
         offset="1"
         style="stop-color:#58595B"
         id="stop1414" /></linearGradient><linearGradient
       id="SVGID_8_"
       gradientUnits="userSpaceOnUse"
       x1="-1746.1846"
       y1="-2227.3623"
       x2="-1746.1846"
       y2="-2335.908"
       gradientTransform="matrix(-0.1284,0,0,0.1284,-230.1935,731.2796)"><stop
         offset="0"
         style="stop-color:#FFFFFF"
         id="stop1419" /><stop
         offset="1"
         style="stop-color:#A6A8AB"
         id="stop1421" /></linearGradient><radialGradient
       id="SVGID_9_"
       cx="-11724.91"
       cy="-3164.0283"
       r="3767.4099"
       gradientTransform="matrix(0.0642,0,0,0.0642,565.5225,503.5067)"
       gradientUnits="userSpaceOnUse"><stop
         offset="0"
         style="stop-color:#E3EAED"
         id="stop1426" /><stop
         offset="0.1822"
         style="stop-color:#EEF2F4"
         id="stop1428" /><stop
         offset="0.3876"
         style="stop-color:#FFFFFF"
         id="stop1430" /><stop
         offset="0.4578"
         style="stop-color:#FBFCFC"
         id="stop1432" /><stop
         offset="0.5241"
         style="stop-color:#F0F1F4"
         id="stop1434" /><stop
         offset="0.5889"
         style="stop-color:#DDE0E5"
         id="stop1436" /><stop
         offset="0.6527"
         style="stop-color:#C2C8D1"
         id="stop1438" /><stop
         offset="0.7153"
         style="stop-color:#A0A9B8"
         id="stop1440" /><stop
         offset="0.7416"
         style="stop-color:#8F9AAB"
         id="stop1442" /><stop
         offset="0.7775"
         style="stop-color:#A7B0BE"
         id="stop1444" /><stop
         offset="0.8504"
         style="stop-color:#D1D7E0"
         id="stop1446" /><stop
         offset="0.8876"
         style="stop-color:#E2E6ED"
         id="stop1448" /><stop
         offset="0.9038"
         style="stop-color:#D9DEE6"
         id="stop1450" /><stop
         offset="0.9303"
         style="stop-color:#C1C9D3"
         id="stop1452" /><stop
         offset="0.9636"
         style="stop-color:#99A6B5"
         id="stop1454" /><stop
         offset="1"
         style="stop-color:#667A8D"
         id="stop1456" /></radialGradient><linearGradient
       id="SVGID_10_"
       gradientUnits="userSpaceOnUse"
       x1="-10794.563"
       y1="-1328.8193"
       x2="-10404.008"
       y2="-1328.8193"
       gradientTransform="matrix(0.0642,0,0,0.0642,565.5225,503.5067)"><stop
         offset="0"
         style="stop-color:#A6A8AB"
         id="stop1473" /><stop
         offset="0.0809"
         style="stop-color:#C1C2C4"
         id="stop1475" /><stop
         offset="0.1751"
         style="stop-color:#D7D8DA"
         id="stop1477" /><stop
         offset="0.2841"
         style="stop-color:#E9EAEA"
         id="stop1479" /><stop
         offset="0.4154"
         style="stop-color:#F6F6F6"
         id="stop1481" /><stop
         offset="0.5913"
         style="stop-color:#FDFDFD"
         id="stop1483" /><stop
         offset="1"
         style="stop-color:#FFFFFF"
         id="stop1485" /></linearGradient><linearGradient
       id="SVGID_11_"
       gradientUnits="userSpaceOnUse"
       x1="-10794.562"
       y1="-1496.7773"
       x2="-10527.434"
       y2="-1496.7773"
       gradientTransform="matrix(0.0642,0,0,0.0642,565.5225,503.5067)"><stop
         offset="0"
         style="stop-color:#A6A8AB"
         id="stop1490" /><stop
         offset="0.0491"
         style="stop-color:#9FA1A4"
         id="stop1492" /><stop
         offset="0.3076"
         style="stop-color:#808284"
         id="stop1494" /><stop
         offset="0.5576"
         style="stop-color:#6A6B6D"
         id="stop1496" /><stop
         offset="0.7934"
         style="stop-color:#5D5E60"
         id="stop1498" /><stop
         offset="1"
         style="stop-color:#58595B"
         id="stop1500" /></linearGradient><linearGradient
       id="SVGID_12_"
       gradientUnits="userSpaceOnUse"
       x1="-9797.876"
       y1="-1497.3633"
       x2="-9530.7344"
       y2="-1497.3633"
       gradientTransform="matrix(0.0642,0,0,0.0642,565.5225,503.5229)"><stop
         offset="0"
         style="stop-color:#808184"
         id="stop1507" /><stop
         offset="0.1606"
         style="stop-color:#8E8E91"
         id="stop1509" /><stop
         offset="0.4615"
         style="stop-color:#B1B2B4"
         id="stop1511" /><stop
         offset="0.8674"
         style="stop-color:#EBEBEB"
         id="stop1513" /><stop
         offset="1"
         style="stop-color:#FFFFFF"
         id="stop1515" /></linearGradient><linearGradient
       id="SVGID_13_"
       gradientUnits="userSpaceOnUse"
       x1="-9682.1855"
       y1="-1468.084"
       x2="-9178.9404"
       y2="-1468.084"
       gradientTransform="matrix(0.0642,0,0,0.0642,565.5225,503.5067)"><stop
         offset="0"
         style="stop-color:#FFFFFF"
         id="stop1568" /><stop
         offset="0.2088"
         style="stop-color:#FDFDFD"
         id="stop1570" /><stop
         offset="0.3164"
         style="stop-color:#F5F5F6"
         id="stop1572" /><stop
         offset="0.4009"
         style="stop-color:#E8E8E9"
         id="stop1574" /><stop
         offset="0.4729"
         style="stop-color:#D5D6D8"
         id="stop1576" /><stop
         offset="0.5169"
         style="stop-color:#C5C7C9"
         id="stop1578" /><stop
         offset="0.558"
         style="stop-color:#DADBDC"
         id="stop1580" /><stop
         offset="0.608"
         style="stop-color:#EBEBEC"
         id="stop1582" /><stop
         offset="0.6703"
         style="stop-color:#F6F7F7"
         id="stop1584" /><stop
         offset="0.7576"
         style="stop-color:#FDFDFD"
         id="stop1586" /><stop
         offset="1"
         style="stop-color:#FFFFFF"
         id="stop1588" /></linearGradient><linearGradient
       id="SVGID_14_"
       gradientUnits="userSpaceOnUse"
       x1="-9922.7168"
       y1="-1141.5273"
       x2="-9321.9043"
       y2="-1141.5273"
       gradientTransform="matrix(0.0642,0,0,0.0642,565.5225,503.5067)"><stop
         offset="0.0112"
         style="stop-color:#C5C7C9"
         id="stop1597" /><stop
         offset="0.1281"
         style="stop-color:#C2C4C6"
         id="stop1599" /><stop
         offset="0.2191"
         style="stop-color:#B8BABC"
         id="stop1601" /><stop
         offset="0.3015"
         style="stop-color:#A8AAAC"
         id="stop1603" /><stop
         offset="0.3787"
         style="stop-color:#919294"
         id="stop1605" /><stop
         offset="0.4516"
         style="stop-color:#737476"
         id="stop1607" /><stop
         offset="0.5056"
         style="stop-color:#58595B"
         id="stop1609" /><stop
         offset="0.6695"
         style="stop-color:#9A9A9B"
         id="stop1611" /><stop
         offset="0.8236"
         style="stop-color:#D0D1D1"
         id="stop1613" /><stop
         offset="0.9379"
         style="stop-color:#F2F2F2"
         id="stop1615" /><stop
         offset="1"
         style="stop-color:#FFFFFF"
         id="stop1617" /></linearGradient><linearGradient
       gradientTransform="matrix(0.0642,0,0,0.0642,565.5342,503.5102)"
       y2="-2324.0312"
       x2="-10032.596"
       y1="-2324.0312"
       x1="-10287.981"
       gradientUnits="userSpaceOnUse"
       id="SVGID_15_"><stop
         id="stop1624"
         style="stop-color:#808184"
         offset="0" /><stop
         id="stop1626"
         style="stop-color:#FFFFFF"
         offset="1" /></linearGradient><linearGradient
       gradientTransform="matrix(0.1284,0,0,0.1284,739.7716,731.2684)"
       y2="-2828.2937"
       x2="-6364.4399"
       y1="-3148.2368"
       x1="-6364.4399"
       gradientUnits="userSpaceOnUse"
       id="SVGID_16_"><stop
         id="stop1659"
         style="stop-color:#58595B"
         offset="0" /><stop
         id="stop1661"
         style="stop-color:#616163"
         offset="0.0558" /><stop
         id="stop1663"
         style="stop-color:#78797A"
         offset="0.1451" /><stop
         id="stop1665"
         style="stop-color:#9E9EA0"
         offset="0.2567" /><stop
         id="stop1667"
         style="stop-color:#D2D2D3"
         offset="0.3849" /><stop
         id="stop1669"
         style="stop-color:#FFFFFF"
         offset="0.4831" /><stop
         id="stop1671"
         style="stop-color:#C9C9CA"
         offset="0.7142" /><stop
         id="stop1673"
         style="stop-color:#808184"
         offset="1" /></linearGradient><radialGradient
       gradientUnits="userSpaceOnUse"
       gradientTransform="matrix(0.1284,0,0,0.1284,714.5602,725.1019)"
       fy="-2959.9065"
       fx="-6553.1743"
       r="950.95752"
       cy="-3014.6738"
       cx="-6514.8369"
       id="SVGID_1_"><stop
         id="stop1302"
         style="stop-color:#F9D4E4"
         offset="0" /><stop
         id="stop1304"
         style="stop-color:#F9CFDF"
         offset="0.0896" /><stop
         id="stop1306"
         style="stop-color:#F8C2D1"
         offset="0.194" /><stop
         id="stop1308"
         style="stop-color:#F6ABBA"
         offset="0.3058" /><stop
         id="stop1310"
         style="stop-color:#F48C99"
         offset="0.4228" /><stop
         id="stop1312"
         style="stop-color:#F1646F"
         offset="0.544" /><stop
         id="stop1314"
         style="stop-color:#EE333C"
         offset="0.6667" /><stop
         id="stop1316"
         style="stop-color:#EC1C24"
         offset="0.7191" /><stop
         id="stop1318"
         style="stop-color:#CD181F"
         offset="1" /></radialGradient></defs><sodipodi:namedview
     pagecolor="#ffffff"
     bordercolor="#666666"
     borderopacity="1"
     objecttolerance="10"
     gridtolerance="10"
     guidetolerance="10"
     inkscape:pageopacity="0"
     inkscape:pageshadow="2"
     inkscape:window-width="1366"
     inkscape:window-height="705"
     id="namedview1699"
     showgrid="false"
     inkscape:zoom="0.42567828"
     inkscape:cx="791.23337"
     inkscape:cy="514.00995"
     inkscape:window-x="-8"
     inkscape:window-y="-8"
     inkscape:window-maximized="1"
     inkscape:current-layer="Layer_1" /><path
     style="fill:#000000;fill-opacity:1;stroke-width:4.71082592"
     d="M 500.00195 0 C 223.85333 -1.5158245e-013 0 224.02807 0 500.30859 C 3.7895613e-014 776.57972 223.85333 1000.5605 500.00195 1000.5605 C 776.10345 1000.5605 1000 776.57972 1000 500.30859 C 1000 224.02807 776.10345 0 500.00195 0 z M 500.00195 20.025391 C 765.0707 20.025391 979.99805 235.06554 979.99805 500.30859 C 979.99805 765.54692 765.0707 980.55469 500.00195 980.55469 C 234.91435 980.55469 20.007812 765.55162 20.007812 500.30859 C 20.007812 235.06082 234.91435 20.025391 500.00195 20.025391 z M 500.00781 29.777344 C 495.84815 29.777344 492.29066 32.297404 490.7832 35.896484 L 470.17383 101.16992 C 263.19898 116.45655 99.986328 289.30127 99.986328 500.30859 C 99.986328 562.56216 114.21354 621.5477 139.5625 674.07812 L 93.345703 724.5918 C 91.060953 727.6915 90.716538 732.00659 92.742188 735.55859 C 94.810241 739.16239 98.781306 740.97037 102.63477 740.48047 L 169.44336 725.71289 C 241.46718 831.25419 362.63426 900.51758 500.00195 900.51758 C 637.36492 900.51758 758.51433 831.21202 830.56641 725.66602 L 897.43555 740.49414 C 901.289 740.92754 905.19493 739.11546 907.24414 735.53516 C 909.31219 731.95966 908.89781 727.59695 906.58008 724.50195 L 860.42773 674.08203 C 885.77197 621.5045 899.98438 562.56801 899.98438 500.31445 C 899.98436 289.30713 736.79723 116.46241 529.79883 101.17578 L 509.15039 35.8125 C 507.64293 32.25583 504.10151 29.777344 500.00781 29.777344 z M 499.99805 39.058594 C 501.37833 39.058594 502.28331 40.437414 502.5 41.558594 L 545.18945 182.30469 L 545.14062 182.4082 C 532.91604 191.52836 525.00195 206.12298 525.00195 222.54492 C 525.00195 238.92917 532.898 253.50025 545.05664 262.60156 L 544.88281 262.58203 C 563.16082 276.26698 574.97461 298.10595 574.97461 322.70117 L 574.97461 369.78516 L 756.74805 264.80078 L 776.75781 299.46289 L 574.98047 416.00391 L 574.98047 456.4043 L 610.0293 476.62305 L 811.76953 360.12891 L 831.77148 394.83398 L 650.08984 499.77734 L 690.82227 523.31836 C 690.80555 523.30521 690.78516 523.2832 690.78516 523.2832 L 691.00195 523.41602 L 690.88281 523.35547 C 712.09575 535.68827 725.05965 556.79691 727.77539 579.45508 L 727.79883 579.28125 C 729.62663 594.39829 738.25194 608.521 752.45508 616.66602 C 766.70533 624.90055 783.26413 625.3342 797.29297 619.29492 L 897.86523 726.74023 C 899.07591 727.43273 899.45777 728.93853 898.75586 730.14453 C 898.06337 731.33163 896.42839 731.44178 895.34961 731.05078 L 752.1582 697.67773 L 752.10156 697.58984 C 750.31144 682.41627 741.6434 668.27358 727.43555 660.03906 C 713.2277 651.83751 696.71703 651.39524 682.70703 657.40625 L 682.83984 657.25977 C 661.87667 666.24802 637.04569 665.60304 615.74805 653.3125 L 574.96094 629.74805 L 574.96094 839.73828 L 534.97461 839.73828 L 534.97461 606.63672 L 499.98828 586.44141 L 464.97656 606.66602 L 464.97656 839.74219 L 424.94531 839.74219 L 424.94531 629.81445 L 384.18164 653.35352 C 362.88399 665.62052 338.11403 666.2864 317.13672 657.2793 L 317.26953 657.40625 C 303.27837 651.45648 286.73818 651.8852 272.55859 660.08203 C 258.32719 668.28829 249.665 682.45752 247.89844 697.58398 L 104.62695 731.04492 C 103.42098 731.74212 101.90987 731.32772 101.17969 730.14062 C 100.5343 728.93464 101.24522 727.46928 102.13086 726.73438 L 202.58398 619.33789 L 202.7168 619.33789 C 216.7315 625.37246 233.32328 624.93845 247.55469 616.69922 C 261.74369 608.51651 270.36291 594.41713 272.17188 579.28125 L 272.26172 579.50195 C 274.93747 556.80048 287.91708 535.60339 309.23828 523.32227 L 308.99805 523.44922 L 350 499.77734 L 168.22852 394.77148 L 188.23438 360.12891 L 389.9668 476.66992 L 424.95508 456.44727 L 424.95508 416.00781 L 223.24609 299.4668 L 243.25195 264.76367 L 424.95898 369.74805 L 424.95898 322.70703 C 424.95898 298.11181 436.79345 276.27089 455.07617 262.58594 L 454.90039 262.60547 C 467.05903 253.50887 474.97461 238.93779 474.97461 222.54883 C 474.97461 206.12689 467.03997 191.53227 454.78711 182.41211 L 497.49609 41.558594 C 497.49609 40.178324 498.59423 39.058594 499.99805 39.058594 z M 500.00781 287.70898 C 480.66987 287.70898 464.99609 303.35806 464.99609 322.71484 L 464.99609 392.86523 L 500.00781 413.125 L 534.99414 392.90625 L 534.99414 322.71484 C 534.99414 303.35806 519.3269 287.70898 500.00781 287.70898 z M 500.00195 459.34766 L 464.99219 479.57227 L 464.99219 520.00977 L 500.00195 540.22461 L 534.99023 520.00977 L 534.99023 479.57227 L 500.00195 459.34766 z M 389.9707 522.89648 L 329.24414 557.98828 C 312.49715 567.64547 306.76468 589.07459 316.42188 605.80273 C 326.07906 622.57327 347.50348 628.31229 364.23633 618.65039 L 424.95898 583.55859 L 424.95898 543.07422 L 389.9707 522.89648 z M 610.02344 522.89648 L 574.97461 543.1582 L 574.97461 583.53516 L 635.72656 618.65039 C 652.4971 628.30758 673.89772 622.57327 683.58789 605.80273 C 693.24509 589.0793 687.51238 567.65018 670.73242 557.98828 L 610.02344 522.89648 z M 384.26172 653.31641 C 384.23812 653.35881 384.23761 653.35938 384.19531 653.35938 L 384.02148 653.44922 L 384.26172 653.31641 z "
     transform="translate(-194,289.802)"
     id="path1321" /></svg>